<svg xmlns="http://www.w3.org/2000/svg" width="600" height="1000" viewBox="0 0 600 1000">
  <defs>
    <linearGradient id="g" x1="0" y1="0" x2="1" y2="1">
      <stop offset="0" stop-color="#0b1220"/>
      <stop offset="0.5" stop-color="#111b33"/>
      <stop offset="1" stop-color="#070b14"/>
    </linearGradient>
    <pattern id="p" width="60" height="60" patternUnits="userSpaceOnUse">
      <path d="M30 5 L55 30 L30 55 L5 30 Z" fill="none" stroke="#4fd1c5" stroke-opacity="0.25" stroke-width="2"/>
      <circle cx="30" cy="30" r="6" fill="#a78bfa" fill-opacity="0.25"/>
    </pattern>
  </defs>
  <rect x="20" y="20" width="560" height="960" rx="28" fill="url(#g)" stroke="#4fd1c5" stroke-opacity="0.5" stroke-width="4"/>
  <rect x="55" y="55" width="490" height="890" rx="22" fill="url(#p)" stroke="#a78bfa" stroke-opacity="0.4" stroke-width="3"/>
  <g fill="none" stroke="#e2e8f0" stroke-opacity="0.55" stroke-width="3">
    <path d="M300 170 C355 230 355 300 300 360 C245 300 245 230 300 170 Z"/>
    <path d="M300 630 C370 700 370 810 300 880 C230 810 230 700 300 630 Z"/>
  </g>
  <text x="300" y="510" font-family="ui-sans-serif,system-ui" font-size="44" fill="#e2e8f0" text-anchor="middle" opacity="0.9">TARO500</text>
  <text x="300" y="560" font-family="ui-sans-serif,system-ui" font-size="18" fill="#94a3b8" text-anchor="middle" opacity="0.9">CARD BACK (PLACEHOLDER)</text>
</svg>
